HIERARCHY
ROOT hips
{
  OFFSET 0 10.6860622 2.3727825e-15
  CHANNELS 6 Xposition Yposition Zposition Yrotation Xrotation Zrotation
  JOINT leftUpperLeg
  {
    OFFSET 0.6642549969 -0.9402397400000004 0
    CHANNELS 3 Yrotation Xrotation Zrotation
    JOINT leftLowerLeg
    {
      OFFSET 0 -3.997221335632195 0
      CHANNELS 3 Yrotation Xrotation Zrotation
      JOINT leftFoot
      {
        OFFSET -0.13777839790000004 -4.6145792000000005 -0.22186036399999998
        CHANNELS 3 Yrotation Xrotation Zrotation
        JOINT leftToes
        {
          OFFSET -0.03777410834999995 -0.9130806927000008 0.85230013
          CHANNELS 3 Yrotation Xrotation Zrotation
          End Site
          {
            OFFSET -0.03777410834999995 -0.9130806927000008 0.85230013
          }
        }
      }
    }
  }
  JOINT rightUpperLeg
  {
    OFFSET -0.6642778626 -0.9402397400000004 0
    CHANNELS 3 Yrotation Xrotation Zrotation
    JOINT rightLowerLeg
    {
      OFFSET 0 -3.997221452859387 0
      CHANNELS 3 Yrotation Xrotation Zrotation
      JOINT rightFoot
      {
        OFFSET 0.1377926176 -4.6145792000000005 -0.22185782299999995
        CHANNELS 3 Yrotation Xrotation Zrotation
        JOINT rightToes
        {
          OFFSET 0.037780746850000047 -0.9130806927000008 0.85230167
          CHANNELS 3 Yrotation Xrotation Zrotation
          End Site
          {
            OFFSET 0.037780746850000047 -0.9130806927000008 0.85230167
          }
        }
      }
    }
  }
  JOINT spine
  {
    OFFSET 0 0.13988381660000015 0
    CHANNELS 3 Yrotation Xrotation Zrotation
    JOINT chest
    {
      OFFSET 0 0.6191039003973773 0
      CHANNELS 3 Yrotation Xrotation Zrotation
      JOINT upperChest
      {
        OFFSET 0 0.9855186130586943 0
        CHANNELS 3 Yrotation Xrotation Zrotation
        JOINT leftShoulder
        {
          OFFSET 0.1807663869 1.5087829790000005 0
          CHANNELS 3 Yrotation Xrotation Zrotation
          JOINT leftUpperArm
          {
            OFFSET 0.5985063006419806 0 0
            CHANNELS 3 Yrotation Xrotation Zrotation
            JOINT leftLowerArm
            {
              OFFSET 2.2993332369501065 0 0
              CHANNELS 3 Yrotation Xrotation Zrotation
              JOINT leftHand
              {
                OFFSET 2.395047042602395 0 0
                CHANNELS 3 Yrotation Xrotation Zrotation
                JOINT leftIndexProximal
                {
                  OFFSET 0.5766295810000004 0.04556643899499946 0.17265095988184
                  CHANNELS 3 Yrotation Xrotation Zrotation
                  JOINT leftIndexIntermediate
                  {
                    OFFSET 0.2957229000000008 -0.019352197700001517 -0.007932640616999987
                    CHANNELS 3 Yrotation Xrotation Zrotation
                    JOINT leftIndexDistal
                    {
                      OFFSET 0.19008243099999922 -0.012484908149998475 -0.002786250786000012
                      CHANNELS 3 Yrotation Xrotation Zrotation
                      End Site
                      {
                        OFFSET 0.19008243099999922 -0.012484908149998475 -0.002786250786000012
                      }
                    }
                  }
                }
                JOINT leftMiddleProximal
                {
                  OFFSET 0.5834975091000001 0.0524350405149987 0.02204081888183999
                  CHANNELS 3 Yrotation Xrotation Zrotation
                  JOINT leftMiddleIntermediate
                  {
                    OFFSET 0.33880573540000003 -0.019871473270000717 -0.00000971183179999946
                    CHANNELS 3 Yrotation Xrotation Zrotation
                    JOINT leftMiddleDistal
                    {
                      OFFSET 0.20676022730000088 -0.012221336379999448 0.0001471936708000235
                      CHANNELS 3 Yrotation Xrotation Zrotation
                      End Site
                      {
                        OFFSET 0.20676022730000088 -0.012221336379999448 0.0001471936708000235
                      }
                    }
                  }
                }
                JOINT leftLittleProximal
                {
                  OFFSET 0.5344154683999995 -0.012880921405001189 -0.24414037221816004
                  CHANNELS 3 Yrotation Xrotation Zrotation
                  JOINT leftLittleIntermediate
                  {
                    OFFSET 0.21758961730000093 -0.011650919939999227 0.011893592810000034
                    CHANNELS 3 Yrotation Xrotation Zrotation
                    JOINT leftLittleDistal
                    {
                      OFFSET 0.1475273964999999 -0.008152365682999818 0.006001092492999946
                      CHANNELS 3 Yrotation Xrotation Zrotation
                      End Site
                      {
                        OFFSET 0.1475273964999999 -0.008152365682999818 0.006001092492999946
                      }
                    }
                  }
                }
                JOINT leftRingProximal
                {
                  OFFSET 0.5799399463000003 0.026911854694997794 -0.12150566991816003
                  CHANNELS 3 Yrotation Xrotation Zrotation
                  JOINT leftRingIntermediate
                  {
                    OFFSET 0.26167887460000006 -0.013480186499999602 0.010996293000000053
                    CHANNELS 3 Yrotation Xrotation Zrotation
                    JOINT leftRingDistal
                    {
                      OFFSET 0.17667108799999987 -0.008990287899999228 0.0055541023999999065
                      CHANNELS 3 Yrotation Xrotation Zrotation
                      End Site
                      {
                        OFFSET 0.17667108799999987 -0.008990287899999228 0.0055541023999999065
                      }
                    }
                  }
                }
                JOINT leftThumbProximal
                {
                  OFFSET 0.11018806699999972 -0.09448718900500053 0.17047963138184
                  CHANNELS 3 Yrotation Xrotation Zrotation
                  JOINT leftThumbIntermediate
                  {
                    OFFSET 0.31062601459999983 -0.08126270900000132 0.15443142000000007
                    CHANNELS 3 Yrotation Xrotation Zrotation
                    JOINT leftThumbDistal
                    {
                      OFFSET 0.21627175790000086 -0.08833193599999878 0.018771167799999988
                      CHANNELS 3 Yrotation Xrotation Zrotation
                      End Site
                      {
                        OFFSET 0.21627175790000086 -0.08833193599999878 0.018771167799999988
                      }
                    }
                  }
                }
              }
            }
          }
        }
        JOINT neck
        {
          OFFSET 0 1.5463305265074576 0
          CHANNELS 3 Yrotation Xrotation Zrotation
          JOINT head
          {
            OFFSET 0 0.8456443600000344 0
            CHANNELS 3 Yrotation Xrotation Zrotation
            JOINT leftEye
            {
              OFFSET 0.30408573140000006 0.5104519199999995 0.1276382305
              CHANNELS 3 Yrotation Xrotation Zrotation
              End Site
              {
                OFFSET 0.30408573140000006 0.5104519199999995 0.1276382305
              }
            }
            JOINT rightEye
            {
              OFFSET -0.30409491089999996 0.5104519199999995 0.1276379445
              CHANNELS 3 Yrotation Xrotation Zrotation
              End Site
              {
                OFFSET -0.30409491089999996 0.5104519199999995 0.1276379445
              }
            }
            JOINT jaw
            {
              OFFSET -3.155239131000001e-7 -0.11984121820000082 0.60178107
              CHANNELS 3 Yrotation Xrotation Zrotation
              End Site
              {
                OFFSET -3.155239131000001e-7 -0.11984121820000082 0.60178107
              }
            }
          }
        }
        JOINT rightShoulder
        {
          OFFSET -0.1807303465 1.5087829790000005 0
          CHANNELS 3 Yrotation Xrotation Zrotation
          JOINT rightUpperArm
          {
            OFFSET -0.5985063796536958 0 0
            CHANNELS 3 Yrotation Xrotation Zrotation
            JOINT rightLowerArm
            {
              OFFSET -2.2993322059002854 0 0
              CHANNELS 3 Yrotation Xrotation Zrotation
              JOINT rightHand
              {
                OFFSET -2.395045314457259 0 0
                CHANNELS 3 Yrotation Xrotation Zrotation
                JOINT rightIndexProximal
                {
                  OFFSET -0.5764487688300002 0.0441371204405987 0.17361932004999997
                  CHANNELS 3 Yrotation Xrotation Zrotation
                  JOINT rightIndexIntermediate
                  {
                    OFFSET -0.29573011380000047 -0.01934826376999843 -0.007698921482999974
                    CHANNELS 3 Yrotation Xrotation Zrotation
                    JOINT rightIndexDistal
                    {
                      OFFSET -0.19008373999999884 -0.012503266380000655 -0.0026365778999999897
                      CHANNELS 3 Yrotation Xrotation Zrotation
                      End Site
                      {
                        OFFSET -0.19008373999999884 -0.012503266380000655 -0.0026365778999999897
                      }
                    }
                  }
                }
                JOINT rightMiddleProximal
                {
                  OFFSET -0.5834852037300005 0.05211639405060153 0.02307162440000001
                  CHANNELS 3 Yrotation Xrotation Zrotation
                  JOINT rightMiddleIntermediate
                  {
                    OFFSET -0.33880114510000003 -0.019952774050000954 0.0002455003561999819
                    CHANNELS 3 Yrotation Xrotation Zrotation
                    JOINT rightMiddleDistal
                    {
                      OFFSET -0.20675694929999955 -0.012273788999999091 0.00030209124000002766
                      CHANNELS 3 Yrotation Xrotation Zrotation
                      End Site
                      {
                        OFFSET -0.20675694929999955 -0.012273788999999091 0.00030209124000002766
                      }
                    }
                  }
                }
                JOINT rightLittleProximal
                {
                  OFFSET -0.5346811737299992 -0.011214256288399227 -0.24363941305000003
                  CHANNELS 3 Yrotation Xrotation Zrotation
                  JOINT rightLittleIntermediate
                  {
                    OFFSET -0.21757715980000092 -0.011771559690000988 0.01201554387
                    CHANNELS 3 Yrotation Xrotation Zrotation
                    JOINT rightLittleDistal
                    {
                      OFFSET -0.1475201849000004 -0.00822055339600003 0.006082065407000015
                      CHANNELS 3 Yrotation Xrotation Zrotation
                      End Site
                      {
                        OFFSET -0.1475201849000004 -0.00822055339600003 0.006082065407000015
                      }
                    }
                  }
                }
                JOINT rightRingProximal
                {
                  OFFSET -0.5800810755299999 0.027657985680600072 -0.12066365025000003
                  CHANNELS 3 Yrotation Xrotation Zrotation
                  JOINT rightRingIntermediate
                  {
                    OFFSET -0.26166445029999974 -0.013623118409999302 0.011164098990000045
                    CHANNELS 3 Yrotation Xrotation Zrotation
                    JOINT rightRingDistal
                    {
                      OFFSET -0.17666387530000027 -0.009072900100000503 0.005668185599999959
                      CHANNELS 3 Yrotation Xrotation Zrotation
                      End Site
                      {
                        OFFSET -0.17666387530000027 -0.009072900100000503 0.005668185599999959
                      }
                    }
                  }
                }
                JOINT rightThumbProximal
                {
                  OFFSET -0.10997596379000074 -0.09577489355940072 0.16989765924999997
                  CHANNELS 3 Yrotation Xrotation Zrotation
                  JOINT rightThumbIntermediate
                  {
                    OFFSET -0.31036620999999986 -0.08229339117999834 0.15440884469999996
                    CHANNELS 3 Yrotation Xrotation Zrotation
                    JOINT rightThumbDistal
                    {
                      OFFSET -0.21631306399999906 -0.08825326400000111 0.018656797720000014
                      CHANNELS 3 Yrotation Xrotation Zrotation
                      End Site
                      {
                        OFFSET -0.21631306399999906 -0.08825326400000111 0.018656797720000014
                      }
                    }
                  }
                }
              }
            }
          }
        }
      }
    }
  }
}
MOTION
Frames: 7
Frame Time: 0.03333333333333333
0.1942864812757559 -0.10238359973512771 -2.7393207566042412 0 10.922581279722971 0 5.838072837795762 -13.215584232761762 2.9195073374419556 2.143674621175287 25.304779719797565 5.8661771248662165 10.170343821045288 -9.740641795063347 -16.82035314746472 0 0 0 -1.9829613072687091 -12.737679503553114 0.03938877022875864 -2.033319553332252 25.51656170141855 -6.179269837040572 -15.459774442382745 -9.423341513475215 15.540829343218995 0 0 0 -0.3607017249323956 -1.57838804999441 -0.5099899713544269 -1.6454631878396337 16.00702045555762 -0.9375746962888047 0 0 0 -18.442456737096467 3.311581752298679 -11.221719029843557 -2.8483433206462467 -12.783732283336306 -56.26643106320179 -43.33715174540267 6.029604571690433 -3.039846806910384 1.4059502537572872 -5.552886459995657 12.391866129717519 0 0 0 0 0 0 0 0 0 0 0 0 0 0 0 0 0 0 0 0 0 0 0 0 0 0 0 0 0 0 0 0 0 0 0 0 0 0 0 0 0 0 0 0 0 0 13.618287225944485 0 0 8.461020223406972 0 0 0 0 0 0 0 0 0 0 18.193374399512 3.3759600214924723 10.935231009476711 2.861419631548599 -12.781349252384906 56.201542681678006 43.333233899677495 6.030990659181882 3.0363944976475192 -1.4092678964069738 -5.55330935507206 -12.395233399148433 0 0 0 0 0 0 0 0 0 0 0 0 0 0 0 0 0 0 0 0 0 0 0 0 0 0 0 0 0 0 0 0 0 0 0 0 0 0 0 0 0 0 0 0 0
0.1942864812757559 -0.10238359973512771 -2.711023622655899 0 10.34570416933658 0 5.895279451371308 -12.281391340608337 3.022904980328895 2.110854420401309 24.938939780851516 5.788154655131601 10.170343821045288 -9.740641795063347 -16.82035314746472 0 0 0 -2.0078032692628796 -11.796811468865378 -0.017953527472830622 -1.9996142258683989 25.150713213238497 -6.094756005615696 -15.459774442382745 -9.423341513475215 15.540829343218995 0 0 0 -0.3607782951692456 -1.8536014475910276 -0.5082235321109511 -1.6570658212648777 17.355132064983017 -0.9780436812318798 0 0 0 -18.591142125951475 2.9391203265423846 -11.126678669748818 -2.847075197290511 -12.79823581425268 -56.1516479535045 -43.33715174540267 6.029604571690433 -3.039846806910384 1.4059502537572872 -5.552886459995657 12.391866129717519 0 0 0 0 0 0 0 0 0 0 0 0 0 0 0 0 0 0 0 0 0 0 0 0 0 0 0 0 0 0 0 0 0 0 0 0 0 0 0 0 0 0 0 0 0 0 13.677867378577767 0 0 8.502740268971802 0 0 0 0 0 0 0 0 0 0 18.35588544183208 3.000324178370044 10.855981702039609 2.8593257215791126 -12.795874534281255 56.08998619542003 43.333233899677495 6.030990659181882 3.0363944976475192 -1.4092678964069738 -5.55330935507206 -12.395233399148433 0 0 0 0 0 0 0 0 0 0 0 0 0 0 0 0 0 0 0 0 0 0 0 0 0 0 0 0 0 0 0 0 0 0 0 0 0 0 0 0 0 0 0 0 0
0.1942864812757559 -0.10238359973512771 -2.6827267570998274 0 9.768883130020791 0 5.9539960471686895 -11.347557938464348 3.126874691836207 2.078679746937158 24.573078848884073 5.710594445295802 10.170343821045288 -9.740641795063347 -16.82035314746472 0 0 0 -2.0335149141576756 -10.85622646448088 -0.07550588197968663 -1.9666059508551115 24.784844840017602 -6.010734307917038 -15.459774442382745 -9.423341513475215 15.540829343218995 0 0 0 -0.3608642315140209 -2.1288061589316185 -0.5064564439741697 -1.6697554763112055 18.702482729475562 -1.0190887754795928 0 0 0 -18.740392214054815 2.5669263250271714 -11.030709900775072 -2.8458370087991214 -12.812737552480392 -56.036852932096295 -43.33715174540267 6.029604571690433 -3.039846806910384 1.4059502537572872 -5.552886459995657 12.391866129717519 0 0 0 0 0 0 0 0 0 0 0 0 0 0 0 0 0 0 0 0 0 0 0 0 0 0 0 0 0 0 0 0 0 0 0 0 0 0 0 0 0 0 0 0 0 0 13.737447671261394 0 0 8.544457949771669 0 0 0 0 0 0 0 0 0 0 18.518847306049604 2.6249359573238427 10.775692216274647 2.857263226288711 -12.8104041548283 55.9784121296923 43.333233899677495 6.030990659181882 3.0363944976475192 -1.4092678964069738 -5.55330935507206 -12.395233399148433 0 0 0 0 0 0 0 0 0 0 0 0 0 0 0 0 0 0 0 0 0 0 0 0 0 0 0 0 0 0 0 0 0 0 0 0 0 0 0 0 0 0 0 0 0
0.1942864812757559 -0.10238359973512771 -2.6544298915437565 0 9.192151227178254 0 6.0142252663213345 -10.414205903946506 3.2314491883174896 2.0471434858894044 24.207200977493283 5.633489126862109 10.170343821045288 -9.740641795063347 -16.82035314746472 0 0 0 -2.0600971417750116 -9.91604382821482 -0.13329080398853557 -1.9342850230018502 24.418949406535226 -5.927194141904433 -15.459774442382745 -9.423341513475215 15.540829343218995 0 0 0 -0.36095754185719864 -2.4040025489692725 -0.5046884544322551 -1.6835649268164075 20.048712832926487 -1.060757229332838 0 0 0 -18.89021456508751 2.195013274853971 -10.933801761988128 -2.8446274929803743 -12.827246254897569 -55.922052319995245 -43.33715174540267 6.029604571690433 -3.039846806910384 1.4059502537572872 -5.552886459995657 12.391866129717519 0 0 0 0 0 0 0 0 0 0 0 0 0 0 0 0 0 0 0 0 0 0 0 0 0 0 0 0 0 0 0 0 0 0 0 0 0 0 0 0 0 0 0 0 0 0 13.797020256294964 0 0 8.586176740955677 0 0 0 0 0 0 0 0 0 0 18.682280883017018 2.249806568107164 10.694366639087045 2.855229483146731 -12.824933737621526 55.86682097345459 43.333233899677495 6.030990659181882 3.0363944976475192 -1.4092678964069738 -5.55330935507206 -12.395233399148433 0 0 0 0 0 0 0 0 0 0 0 0 0 0 0 0 0 0 0 0 0 0 0 0 0 0 0 0 0 0 0 0 0 0 0 0 0 0 0 0 0 0 0 0 0
0.1942864812757559 -0.10238359973512771 -2.6261330259876856 0 8.615536933267734 0 6.075975018634563 -9.48147106993277 3.3366604657578858 2.016238576333356 23.8413157263238 5.55683017756297 10.170343821045288 -9.740641795063347 -16.82035314746472 0 0 0 -2.087552407684092 -8.976400275489944 -0.19132862140379908 -1.902644116260085 24.053047820122224 -5.8441271131206225 -15.459774442382745 -9.423341513475215 15.540829343218995 0 0 0 -0.36106018663341755 -2.6791860660611544 -0.5029196775660232 -1.6985326882057512 21.393437674504284 -1.1030996716294048 0 0 0 -19.040615819803758 1.823394754040872 -10.835952682136716 -2.8434474843670285 -12.841757545256664 -55.8072582650159 -43.33715174540267 6.029604571690433 -3.039846806910384 1.4059502537572872 -5.552886459995657 12.391866129717519 0 0 0 0 0 0 0 0 0 0 0 0 0 0 0 0 0 0 0 0 0 0 0 0 0 0 0 0 0 0 0 0 0 0 0 0 0 0 0 0 0 0 0 0 0 0 13.85658958903508 0 0 8.627894074373073 0 0 0 0 0 0 0 0 0 0 18.846193617532265 1.874953462100456 10.61199959438134 2.8532247594806375 -12.839471164604534 55.7552385573016 43.333233899677495 6.030990659181882 3.0363944976475192 -1.4092678964069738 -5.55330935507206 -12.395233399148433 0 0 0 0 0 0 0 0 0 0 0 0 0 0 0 0 0 0 0 0 0 0 0 0 0 0 0 0 0 0 0 0 0 0 0 0 0 0 0 0 0 0 0 0 0
0.1942864812757559 -0.10238359973512771 -2.5978361604316147 0 8.039066787856767 0 6.139254972348537 -8.549481852273715 3.4425473483757227 1.9859558772852584 23.47543063984395 5.480608562941334 10.170343821045288 -9.740641795063347 -16.82035314746472 0 0 0 -2.115881331221155 -8.037421623924846 -0.24963777089908906 -1.871674944693187 23.687138326849233 -5.761523897979847 -15.459774442382745 -9.423340648022759 15.540829343218995 0 0 0 -0.3611712007770795 -2.954352579283849 -0.5011499671035093 -1.7146974955424756 22.736295762762875 -1.1461674301600606 0 0 0 -19.191608109427364 1.4520827964123901 -10.737161977369356 -2.842299174350122 -12.856265294847791 -55.69244016133383 -43.33715174540267 6.029604571690433 -3.039846806910384 1.4059502537572872 -5.552886459995657 12.391866129717519 0 0 0 0 0 0 0 0 0 0 0 0 0 0 0 0 0 0 0 0 0 0 0 0 0 0 0 0 0 0 0 0 0 0 0 0 0 0 0 0 0 0 0 0 0 0 13.916157490581151 0 0 8.669609971661359 0 0 0 0 0 0 0 0 0 0 19.010590357632598 1.500385919353913 10.528586477790094 2.8512483153027244 -12.854009432320591 55.643640113717254 43.333233899677495 6.030990659181882 3.0363944976475192 -1.4092678964069738 -5.55330935507206 -12.395233399148433 0 0 0 0 0 0 0 0 0 0 0 0 0 0 0 0 0 0 0 0 0 0 0 0 0 0 0 0 0 0 0 0 0 0 0 0 0 0 0 0 0 0 0 0 0
0.1942864812757559 -0.10238359973512771 -2.5695392948755433 0 7.462772334271016 0 6.204074737531125 -7.618362348098071 3.5491427250109147 1.9562900227635547 23.109556849043905 5.404816064191755 10.170343821045288 -9.740641795063347 -16.82035314746472 0 0 0 -2.1450868644917964 -7.099230663087587 -0.30824206878878985 -1.841370979224565 23.321247040442913 -5.679375917689965 -15.459774442382745 -9.423341513475215 15.540829343218995 0 0 0 -0.3612895186762805 -3.229502225876219 -0.4993802387823532 -1.7321038604450314 24.07692511401563 -1.190015891632795 0 0 0 -19.34318803363261 1.0810907809699608 -10.637421574367137 -2.841179551681148 -12.87078264065185 -55.57764118814996 -43.33715174540267 6.029604571690433 -3.039846806910384 1.4059502537572872 -5.552886459995657 12.391866129717519 0 0 0 0 0 0 0 0 0 0 0 0 0 0 0 0 0 0 0 0 0 0 0 0 0 0 0 0 0 0 0 0 0 0 0 0 0 0 0 0 0 0 0 0 0 0 13.9757196251507 0 0 8.711322726985115 0 0 0 0 0 0 0 0 0 0 19.175479789298446 1.1261191527647676 10.444124336976113 2.8493004623342393 -12.86855379647084 55.53205333362997 43.333233899677495 6.030990659181882 3.0363944976475192 -1.4092678964069738 -5.55330935507206 -12.395233399148433 0 0 0 0 0 0 0 0 0 0 0 0 0 0 0 0 0 0 0 0 0 0 0 0 0 0 0 0 0 0 0 0 0 0 0 0 0 0 0 0 0 0 0 0 0
